<svg width="35" height="35" viewBox="0 0 35 35" fill="none" xmlns="http://www.w3.org/2000/svg">
<path d="M32.7496 18.9711C32.7496 18.9711 33.2172 15.4027 32.3668 13.7894C31.5164 12.1762 28.8914 8.61327 23.4472 7.97069C20.5597 7.63163 18.6047 8.01444 16.8218 8.22499C15.6925 8.35897 13.5898 7.66444 9.81364 8.52304C7.01364 9.16015 2.76442 11.6238 1.38356 16.934C0.656218 19.7312 0.93239 22.7527 2.17106 25.2984C4.54997 30.182 8.96598 31.3715 8.96598 31.3715L17.8418 32.0933L28.5879 27.5488L32.7496 18.9711Z" fill="#FF2A23"/>
<path d="M22.4301 32.5609C28.0793 31.4563 32.9629 26.4031 33.8133 21.052C34.609 16.0453 31.6833 12.6902 31.6833 12.6902C31.6833 12.6902 32.0168 15.3617 31.3934 18.2082C30.7235 21.2543 28.7848 26.332 22.6434 29.2086C15.1047 32.7387 6.84692 30.4117 6.84692 30.4117C6.84692 30.4117 12.4579 34.5106 22.4301 32.5609Z" fill="#DC0D27"/>
<path d="M6.81401 14.4266C5.31284 14.0383 3.43979 15.173 3.16909 18.4953C2.92026 21.5387 4.56909 25.2055 6.1851 24.768C7.55776 24.3961 6.23706 21.8531 6.72651 19.7668C7.22143 17.6805 9.10268 15.0199 6.81401 14.4266Z" fill="#FED3B0"/>
<path d="M8.71448 12.5918C8.5012 12.868 8.99612 14.082 11.509 14.0656C14.0192 14.0492 14.4403 13.2918 15.5586 13.6309C16.677 13.9699 17.5492 15.3152 18.7852 16.0508C20.5133 17.0789 23.0071 16.8164 22.9907 16.3598C22.9742 15.9004 22.3645 16.1356 21.8395 15.493C21.3145 14.8477 20.3848 13.1441 20.3848 13.1441C20.3848 13.1441 20.6446 12.3457 21.1942 12.3758C22.4629 12.4441 23.8739 12.1926 24.6504 11.7059C25.5801 11.1262 25.9301 10.232 25.7606 10.027C25.591 9.82461 25.0633 10.3715 24.7762 10.3195C24.4891 10.2676 22.6215 10.3031 22.6215 10.3031L20.3657 9.93672C20.3657 9.93672 20.6746 8.61602 21.2844 7.9379C21.8942 7.25977 22.8512 6.32735 22.8321 6.20977C22.8129 6.09219 22.0446 6.1961 22.0446 6.1961L19.6684 7.28165L18.0059 9.46915L14.8504 9.87657L11.8125 7.83946C11.8125 7.83946 10.0707 6.43399 9.99144 6.4668C9.5512 6.64727 10.2211 7.31719 10.727 8.12657C11.1645 8.8293 11.2547 9.18204 11.8453 9.67149C12.4223 10.1473 13.3903 10.6203 13.3903 10.6203L12.6957 11.8754C12.6957 11.8754 10.4563 12.7586 10.0653 12.7586C9.67698 12.7613 8.83206 12.4414 8.71448 12.5918Z" fill="#BDCF44"/>
<path d="M15.7254 11.8344C16.6414 11.9027 17.3031 13.1195 18.1289 13.948C19.3347 15.1539 20.2781 15.7828 21.2925 16.0207C21.8011 16.1383 22.9687 16.3324 22.9687 16.3324C22.9687 16.3324 23.1382 16.2148 22.5613 15.8922C21.9843 15.5695 21.6371 14.9515 21.5523 14.6644C21.4675 14.3773 21.2023 13.434 20.6445 12.6519C20.0867 11.8699 19.4523 11.539 19.6546 11.1836C19.857 10.8281 21.607 11.4297 23.2914 11.159C25.5144 10.8035 25.8535 10.0898 25.7523 10.0051C25.6511 9.9203 24.2757 10.3277 23.5812 10.1746C22.8867 10.0215 22.2906 9.54569 21.2406 9.54569C20.5242 9.54569 19.8242 9.80545 19.6355 9.41444C19.4769 9.08631 20.073 7.98983 20.5269 7.57694C21.6289 6.57616 22.8183 6.33827 22.8183 6.20155C22.8183 5.91991 20.8851 5.76131 19.5453 6.83045C18.2109 7.89413 18.4625 9.29139 16.7289 9.29139C16.1519 9.29139 15.9304 9.15467 15.9304 9.15467C15.9304 9.15467 15.1566 8.51756 14.123 7.95702C13.0894 7.39647 12.3101 7.6453 11.714 7.35819C11.1207 7.07108 10.0679 6.32733 9.96676 6.47772C9.86559 6.62811 10.757 7.6453 11.8781 8.47655C12.9992 9.3078 14.2543 9.73163 13.8961 10.0707C13.5406 10.4098 12.9472 10.6312 12.3867 11.0551C11.8261 11.4789 11.3339 12.0887 10.6558 12.3101C9.9777 12.5316 8.86207 12.3758 8.70895 12.5617C8.55582 12.7476 9.8902 13.3902 11.9765 13.0019C14.0574 12.6137 14.0629 11.7113 15.7254 11.8344Z" fill="#94A61D"/>
<path d="M17.8063 1.35078C17.3497 1.3289 16.7727 1.68984 16.7727 1.68984C16.7727 1.68984 15.936 2.70976 15.6051 5.24179C15.452 6.41211 15.6188 7.98437 15.586 8.85117C15.5532 9.71523 15.3645 10.0379 15.4165 10.4809C15.4684 10.9211 15.9305 11.4187 16.9997 11.4078C17.8583 11.3996 18.3012 10.7352 18.2848 10.4973C18.2684 10.2594 17.5329 7.83398 17.7407 5.6957C17.9348 3.70781 18.6594 2.33515 18.6895 2.04804C18.7059 1.89218 18.5008 1.38359 17.8063 1.35078Z" fill="#728035"/>
</svg>
